<svg preserveAspectRatio="none" width="100%" height="100%" overflow="visible" style="display: block;" viewBox="0 0 20.2992 22.5618" fill="none" xmlns="http://www.w3.org/2000/svg">
<g id="Group">
<g id="Vector">
</g>
<g id="Vector_2">
</g>
<g id="Group_2">
<path id="Vector_3" d="M18.4791 7.662C17.5421 6.353 16.0191 5.676 14.4331 5.572C13.3261 5.492 12.3231 5.856 11.5171 6.159C11.1011 6.315 10.6461 6.531 10.1931 6.531C9.71908 6.531 9.24908 6.317 8.81308 6.151C8.04308 5.86 7.25708 5.591 6.42308 5.621C4.59408 5.686 2.92608 6.691 1.97908 8.265C-0.35592 12.135 1.82808 17.949 4.92608 20.721C5.49908 21.234 6.13708 21.581 6.86408 21.561C8.13108 21.506 9.20108 20.693 10.4911 20.693C11.7811 20.693 12.8601 21.554 14.1411 21.526C16.7271 21.484 18.3371 17.916 19.0411 15.903C17.2981 15.195 16.1091 13.58 16.0871 11.668C16.0671 10 17.0741 8.496 18.4791 7.662Z" stroke="var(--stroke-0, black)" stroke-width="2"/>
<path id="Vector_4" d="M11.0551 3.55H11.1051C11.7681 3.55 12.404 3.28661 12.8728 2.81777C13.3417 2.34893 13.6051 1.71304 13.6051 1.05V1H13.5551C12.892 1 12.2562 1.26339 11.7873 1.73223C11.3185 2.20107 11.0551 2.83696 11.0551 3.5V3.55Z" stroke="var(--stroke-0, black)" stroke-width="2"/>
</g>
</g>
</svg>
